<?xml version="1.0" encoding="iso-8859-1"?>
<!-- Uploaded to: SVG Repo, www.svgrepo.com, Generator: SVG Repo Mixer Tools -->
<!DOCTYPE svg PUBLIC "-//W3C//DTD SVG 1.1//EN" "http://www.w3.org/Graphics/SVG/1.1/DTD/svg11.dtd">
<svg fill="#000000" height="800px" width="800px" version="1.1" id="Capa_1" xmlns="http://www.w3.org/2000/svg" xmlns:xlink="http://www.w3.org/1999/xlink" 
	 viewBox="0 0 304.43 304.43" xml:space="preserve">
<g>
	<path d="M176.2,218.497h-47.971c-0.603,9.548-3.716,20.083-8.962,29.98c-2.266,4.273-4.859,8.296-7.69,11.963h81.275
		c-2.831-3.667-5.425-7.69-7.691-11.963C179.916,238.581,176.804,228.046,176.2,218.497z"/>
	<path d="M302.819,183.478l-84.082-85.638c-4.173-4.25-9.878-6.644-15.834-6.644h-14.341c7.845-15.915,12.623-33.403,12.623-43.027
		c0-20.619-21.925-42.333-48.971-42.333s-48.971,21.715-48.971,42.333c0,9.492,4.65,26.634,12.304,42.372v0.655h-14.022
		c-5.956,0-11.662,2.394-15.834,6.644L1.61,183.478c-2.045,2.083-2.155,5.385-0.254,7.6l17.576,20.47
		c1.96,2.282,5.369,2.617,7.735,0.76l53.12-41.687L63.928,286.117c-0.432,3.144,0.518,6.321,2.603,8.712
		c2.086,2.392,5.104,3.764,8.277,3.764h154.813c3.173,0,6.191-1.373,8.277-3.764c2.086-2.392,3.035-5.569,2.603-8.712
		l-15.859-115.496l53.12,41.687c2.366,1.857,5.775,1.522,7.735-0.76l17.576-20.47C304.975,188.862,304.865,185.561,302.819,183.478z
		 M152.215,41.502c13.636,0,24.69,10.948,24.69,21.343s-11.054,38.99-24.69,38.99c-13.636,0-24.69-28.594-24.69-38.99
		S138.579,41.502,152.215,41.502z M218.222,270.218c-0.991,3.11-3.881,5.223-7.146,5.223H93.353c-3.265,0-6.154-2.112-7.146-5.223
		c-0.992-3.11,0.143-6.505,2.806-8.395c6.41-4.547,12.447-11.782,17-20.371c5.378-10.144,8.052-21.232,7.154-29.661
		c-0.225-2.115,0.459-4.227,1.881-5.809c1.423-1.582,3.45-2.485,5.577-2.485h63.178c2.127,0,4.154,0.903,5.577,2.485
		c1.422,1.582,2.105,3.693,1.881,5.809c-0.898,8.431,1.776,19.518,7.153,29.661c0,0,0,0,0.001,0c4.553,8.589,10.59,15.824,17,20.371
		C218.079,263.713,219.214,267.108,218.222,270.218z"/>
</g>
</svg>